<?xml version="1.0" encoding="UTF-8" standalone="no"?>
<!-- Created with Inkscape (http://www.inkscape.org/) -->

<svg
   xmlns:dc="http://purl.org/dc/elements/1.1/"
   xmlns:cc="http://creativecommons.org/ns#"
   xmlns:rdf="http://www.w3.org/1999/02/22-rdf-syntax-ns#"
   xmlns:svg="http://www.w3.org/2000/svg"
   xmlns="http://www.w3.org/2000/svg"
   xmlns:xlink="http://www.w3.org/1999/xlink"
   xmlns:sodipodi="http://sodipodi.sourceforge.net/DTD/sodipodi-0.dtd"
   xmlns:inkscape="http://www.inkscape.org/namespaces/inkscape"
   width="210mm"
   height="210mm"
   viewBox="0 0 210 210"
   version="1.1"
   id="svg8625"
   inkscape:version="0.92.4 (5da689c313, 2019-01-14)"
   sodipodi:docname="cloud-icon.svg">
  <defs
     id="defs8619">
    <linearGradient
       id="linearGradient9365"
       inkscape:collect="always">
      <stop
         id="stop9361"
         offset="0"
         style="stop-color:#17122c;stop-opacity:1" />
      <stop
         id="stop9363"
         offset="1"
         style="stop-color:#667a6f;stop-opacity:0.007" />
    </linearGradient>
    <linearGradient
       inkscape:collect="always"
       id="linearGradient9254">
      <stop
         style="stop-color:#17122c;stop-opacity:0.79695433"
         offset="0"
         id="stop9250" />
      <stop
         style="stop-color:#667a6f;stop-opacity:0.007"
         offset="1"
         id="stop9252" />
    </linearGradient>
    <linearGradient
       inkscape:collect="always"
       xlink:href="#linearGradient9365"
       id="linearGradient9256"
       x1="215.75139"
       y1="108.52561"
       x2="208.11253"
       y2="200.00865"
       gradientUnits="userSpaceOnUse"
       gradientTransform="matrix(0.98395354,0,0,0.97639478,7.1883771,10.288126)" />
    <linearGradient
       inkscape:collect="always"
       xlink:href="#linearGradient9254"
       id="linearGradient9256-2"
       x1="215.75139"
       y1="108.52561"
       x2="208.11253"
       y2="200.00865"
       gradientUnits="userSpaceOnUse"
       gradientTransform="matrix(0.51568233,0,0,0.49557518,163.76969,98.527967)" />
  </defs>
  <sodipodi:namedview
     id="base"
     pagecolor="#ffffff"
     bordercolor="#666666"
     borderopacity="1.0"
     inkscape:pageopacity="0.0"
     inkscape:pageshadow="2"
     inkscape:zoom="0.7"
     inkscape:cx="429.81368"
     inkscape:cy="129.24701"
     inkscape:document-units="mm"
     inkscape:current-layer="layer1"
     showgrid="false"
     inkscape:window-width="1366"
     inkscape:window-height="705"
     inkscape:window-x="-8"
     inkscape:window-y="-8"
     inkscape:window-maximized="1" />
  <metadata
     id="metadata8622">
    <rdf:RDF>
      <cc:Work
         rdf:about="">
        <dc:format>image/svg+xml</dc:format>
        <dc:type
           rdf:resource="http://purl.org/dc/dcmitype/StillImage" />
        <dc:title></dc:title>
      </cc:Work>
    </rdf:RDF>
  </metadata>
  <g
     inkscape:label="Camada 1"
     inkscape:groupmode="layer"
     id="layer1"
     transform="translate(0,-87)">
    <rect
       style="opacity:0.247;fill:url(#linearGradient9256);fill-opacity:1;stroke:none;stroke-width:0;stroke-linecap:square;stroke-linejoin:round;stroke-miterlimit:4;stroke-dasharray:none;stroke-opacity:1;paint-order:stroke fill markers"
       id="rect9248"
       width="118.5165"
       height="175.51447"
       x="156.85957"
       y="90.756561"
       rx="24.594687"
       transform="matrix(0.87868489,0.4774022,-0.66995128,0.74240507,0,0)" />
    <rect
       style="opacity:1;fill:#667cad;fill-opacity:1;stroke:none;stroke-width:0;stroke-linecap:square;stroke-linejoin:round;stroke-miterlimit:4;stroke-dasharray:none;stroke-opacity:1;paint-order:stroke fill markers"
       id="rect8629-4"
       width="142.11906"
       height="43.415054"
       x="29.222729"
       y="175.61668"
       rx="21.187265" />
    <path
       style="opacity:1;fill:#667cad;fill-opacity:1;stroke:none;stroke-width:0;stroke-linecap:square;stroke-linejoin:round;stroke-miterlimit:4;stroke-dasharray:none;stroke-opacity:1;paint-order:stroke fill markers"
       id="path8631-6"
       sodipodi:type="arc"
       sodipodi:cx="70.294525"
       sodipodi:cy="174.59978"
       sodipodi:rx="26.179825"
       sodipodi:ry="25.084251"
       sodipodi:start="0.68889018"
       sodipodi:end="0.68754802"
       d="m 90.504093,190.54536 a 26.179825,25.084251 0 0 1 -36.844799,3.4236 26.179825,25.084251 0 0 1 -3.5855,-35.30176 26.179825,25.084251 0 0 1 36.842393,-3.4473 26.179825,25.084251 0 0 1 3.610224,35.29945 L 70.294525,174.59978 Z" />
    <path
       style="opacity:1;fill:#667cad;fill-opacity:1;stroke:none;stroke-width:0;stroke-linecap:square;stroke-linejoin:round;stroke-miterlimit:4;stroke-dasharray:none;stroke-opacity:1;paint-order:stroke fill markers"
       id="path8631-0-1"
       sodipodi:type="arc"
       sodipodi:cx="119.84829"
       sodipodi:cy="171.80321"
       sodipodi:rx="39.035992"
       sodipodi:ry="37.143986"
       sodipodi:start="0.68889018"
       sodipodi:end="0.68754802"
       d="m 149.9822,195.41493 a 39.035992,37.143986 0 0 1 -54.93823,5.06957 39.035992,37.143986 0 0 1 -5.346237,-52.27377 39.035992,37.143986 0 0 1 54.934647,-5.10465 39.035992,37.143986 0 0 1 5.3831,52.27034 l -30.16719,-23.57321 z" />
    <rect
       style="opacity:1;fill:#88afca;fill-opacity:1;stroke:none;stroke-width:0;stroke-linecap:square;stroke-linejoin:round;stroke-miterlimit:4;stroke-dasharray:none;stroke-opacity:1;paint-order:stroke fill markers"
       id="rect8629"
       width="142.11906"
       height="43.415054"
       x="32.505951"
       y="170.80815"
       rx="21.187263" />
    <path
       style="opacity:1;fill:#88afca;fill-opacity:1;stroke:none;stroke-width:0;stroke-linecap:square;stroke-linejoin:round;stroke-miterlimit:4;stroke-dasharray:none;stroke-opacity:1;paint-order:stroke fill markers"
       id="path8631"
       sodipodi:type="arc"
       sodipodi:cx="75.98317"
       sodipodi:cy="170.32578"
       sodipodi:rx="26.179825"
       sodipodi:ry="25.084251"
       sodipodi:start="0.68889018"
       sodipodi:end="0.68754802"
       d="m 96.192737,186.27135 a 26.179825,25.084251 0 0 1 -36.844799,3.42361 26.179825,25.084251 0 0 1 -3.5855,-35.30176 26.179825,25.084251 0 0 1 36.842393,-3.4473 26.179825,25.084251 0 0 1 3.610224,35.29945 L 75.98317,170.32578 Z" />
    <path
       style="opacity:1;fill:#88afca;fill-opacity:1;stroke:none;stroke-width:0;stroke-linecap:square;stroke-linejoin:round;stroke-miterlimit:4;stroke-dasharray:none;stroke-opacity:1;paint-order:stroke fill markers"
       id="path8631-0"
       sodipodi:type="arc"
       sodipodi:cx="127.40782"
       sodipodi:cy="164.0547"
       sodipodi:rx="39.035992"
       sodipodi:ry="37.143986"
       sodipodi:start="0.68889018"
       sodipodi:end="0.68754802"
       d="m 157.54173,187.66642 a 39.035992,37.143986 0 0 1 -54.93823,5.06958 39.035992,37.143986 0 0 1 -5.346235,-52.27377 39.035992,37.143986 0 0 1 54.934645,-5.10465 39.035992,37.143986 0 0 1 5.3831,52.27034 L 127.40782,164.0547 Z" />
    <rect
       style="opacity:0.247;fill:url(#linearGradient9256-2);fill-opacity:1;stroke:none;stroke-width:0;stroke-linecap:square;stroke-linejoin:round;stroke-miterlimit:4;stroke-dasharray:none;stroke-opacity:1;paint-order:stroke fill markers"
       id="rect9248-9"
       width="62.113571"
       height="89.08345"
       x="242.2112"
       y="139.37022"
       rx="12.889881"
       transform="matrix(0.89771749,0.44057157,-0.70676215,0.70745124,0,0)" />
    <rect
       style="opacity:1;fill:#667cad;fill-opacity:1;stroke:none;stroke-width:0;stroke-linecap:square;stroke-linejoin:round;stroke-miterlimit:4;stroke-dasharray:none;stroke-opacity:1;paint-order:stroke fill markers"
       id="rect8629-4-0"
       width="76.298744"
       height="21.053822"
       x="93.28038"
       y="221.36359"
       rx="11.374701" />
    <path
       style="opacity:1;fill:#667cad;fill-opacity:1;stroke:none;stroke-width:0;stroke-linecap:square;stroke-linejoin:round;stroke-miterlimit:4;stroke-dasharray:none;stroke-opacity:1;paint-order:stroke fill markers"
       id="path8631-6-0"
       sodipodi:type="arc"
       sodipodi:cx="115.33041"
       sodipodi:cy="220.87045"
       sodipodi:rx="14.055031"
       sodipodi:ry="12.164429"
       sodipodi:start="0.68889018"
       sodipodi:end="0.68754802"
       d="m 126.18022,228.60315 a 14.055031,12.164429 0 0 1 -19.78069,1.66025 14.055031,12.164429 0 0 1 -1.92493,-17.11934 14.055031,12.164429 0 0 1 19.77939,-1.67174 14.055031,12.164429 0 0 1 1.93821,17.11822 l -10.86179,-7.72009 z" />
    <path
       style="opacity:1;fill:#667cad;fill-opacity:1;stroke:none;stroke-width:0;stroke-linecap:square;stroke-linejoin:round;stroke-miterlimit:4;stroke-dasharray:none;stroke-opacity:1;paint-order:stroke fill markers"
       id="path8631-0-1-5"
       sodipodi:type="arc"
       sodipodi:cx="141.93405"
       sodipodi:cy="219.51428"
       sodipodi:rx="20.957056"
       sodipodi:ry="18.012711"
       sodipodi:start="0.68889018"
       sodipodi:end="0.68754802"
       d="m 158.11189,230.96462 a 20.957056,18.012711 0 0 1 -29.49441,2.45845 20.957056,18.012711 0 0 1 -2.87021,-25.34979 20.957056,18.012711 0 0 1 29.49249,-2.47546 20.957056,18.012711 0 0 1 2.89,25.34812 l -16.19571,-11.43166 z" />
    <rect
       style="opacity:1;fill:#88afca;fill-opacity:1;stroke:none;stroke-width:0;stroke-linecap:square;stroke-linejoin:round;stroke-miterlimit:4;stroke-dasharray:none;stroke-opacity:1;paint-order:stroke fill markers"
       id="rect8629-3"
       width="76.298744"
       height="21.053822"
       x="95.043045"
       y="219.03174"
       rx="11.374701" />
    <path
       style="opacity:1;fill:#88afca;fill-opacity:1;stroke:none;stroke-width:0;stroke-linecap:square;stroke-linejoin:round;stroke-miterlimit:4;stroke-dasharray:none;stroke-opacity:1;paint-order:stroke fill markers"
       id="path8631-1"
       sodipodi:type="arc"
       sodipodi:cx="118.38443"
       sodipodi:cy="218.79779"
       sodipodi:rx="14.055031"
       sodipodi:ry="12.164429"
       sodipodi:start="0.68889018"
       sodipodi:end="0.68754802"
       d="m 129.23424,226.53048 a 14.055031,12.164429 0 0 1 -19.78068,1.66026 14.055031,12.164429 0 0 1 -1.92493,-17.11934 14.055031,12.164429 0 0 1 19.77939,-1.67174 14.055031,12.164429 0 0 1 1.9382,17.11821 l -10.86179,-7.72008 z" />
    <path
       style="opacity:1;fill:#88afca;fill-opacity:1;stroke:none;stroke-width:0;stroke-linecap:square;stroke-linejoin:round;stroke-miterlimit:4;stroke-dasharray:none;stroke-opacity:1;paint-order:stroke fill markers"
       id="path8631-0-9"
       sodipodi:type="arc"
       sodipodi:cx="145.99252"
       sodipodi:cy="215.75668"
       sodipodi:rx="20.957056"
       sodipodi:ry="18.012711"
       sodipodi:start="0.68889018"
       sodipodi:end="0.68754802"
       d="m 162.17036,227.20702 a 20.957056,18.012711 0 0 1 -29.49441,2.45845 20.957056,18.012711 0 0 1 -2.8702,-25.34979 20.957056,18.012711 0 0 1 29.49248,-2.47546 20.957056,18.012711 0 0 1 2.89,25.34813 l -16.19571,-11.43167 z" />
  </g>
</svg>
